<svg width="12" height="12" viewBox="0 0 12 12" fill="none" xmlns="http://www.w3.org/2000/svg">
<path d="M4.5 4.5H5.25V5.25H4.5V4.5ZM6.75 9H7.5V9.75H6.75V9ZM9 4.5H9.75V5.25H9V4.5ZM6.75 4.5H7.5V5.25H6.75V4.5ZM4.5 6H5.25V6.75H4.5V6ZM2.25 6H3V6.75H2.25V6ZM9 6H9.75V6.75H9V6ZM6.75 6H7.5V6.75H6.75V6ZM4.5 7.5H5.25V8.25H4.5V7.5ZM2.25 7.5H3V8.25H2.25V7.5ZM9 7.5H9.75V8.25H9V7.5ZM6.75 7.5H7.5V8.25H6.75V7.5ZM4.5 9H5.25V9.75H4.5V9ZM2.25 9H3V9.75H2.25V9ZM12 0.75V11.25H0V0.75H2.25V0H3V0.75H9V0H9.75V0.75H12ZM0.75 1.5V3H11.25V1.5H9.75V2.25H9V1.5H3V2.25H2.25V1.5H0.75ZM11.25 10.5V3.75H0.75V10.5H11.25Z" fill="#333333"/>
</svg>
